<svg id="Layer_1" enable-background="new 0 0 512 512" height="512" viewBox="0 0 512 512" width="512" xmlns="http://www.w3.org/2000/svg"><g><circle cx="256" cy="256" fill="#afe6ff" r="256"/><g><path d="m321.608 88.55c0 33.04-26.784 59.824-59.824 59.824s-59.824-26.784-59.824-59.824 26.784-70.71 59.824-70.71 59.824 37.67 59.824 70.71z" fill="#97d729"/><path d="m240.575 139.147c10.148-4.515 10.148-4.515 10.675-17.427s4.644-12.255 18.657-20.14c9.731-5.475 8.808-2.863 9.654-27.58s43.134-31.711 43.134-31.711c43.899 34.215 51.75 97.539 17.535 141.438-24.773 31.785-64.808 44.672-101.679 36.376 0 0-17.899-72.092 2.024-80.956z" fill="#7aad21"/><path d="m277.303 142.44c-9.853-5.126-9.853-5.126-9.591-18.046.263-12.92-3.887-12.515-17.393-21.242-9.378-6.059-8.616-3.396-7.951-28.118.665-24.723-41.117-34.286-41.117-34.286-45.907 31.47-57.61 94.197-26.14 140.103 22.786 33.239 61.959 48.546 99.268 42.518 0-.001 22.268-70.865 2.924-80.929z" fill="#86bf24"/><path d="m231.764 216.264c15.314-4.658 15.314-4.658 18.357-23.031s8.814-16.703 30.254-25.495c14.888-6.105 13.104-2.533 18.697-37.733s67.312-37.705 67.312-37.705c56.717 56.717 56.717 148.673 0 205.39-41.066 41.066-100.607 52.398-151.869 33.996 0 0-12.815-106.278 17.249-115.422z" fill="#86bf24"/><path d="m286.624 216.264c-15.314-4.658-15.314-4.658-18.357-23.031s-8.814-16.703-30.254-25.495c-14.888-6.105-13.104-2.533-18.697-37.733s-67.312-37.705-67.312-37.705c-56.717 56.717-56.717 148.673 0 205.39 41.066 41.066 100.607 52.398 151.869 33.996 0 0 12.816-106.278-17.249-115.422z" fill="#97d729"/><path d="m190.445 288.496c-52.435-52.435-56.388-134.987-11.869-191.97-14.18-3.721-26.571-4.226-26.571-4.226-56.717 56.717-56.717 148.673 0 205.39 41.066 41.066 100.607 52.398 151.869 33.996 0 0 .046-.38.123-1.072-40.699 3.032-82.43-10.996-113.552-42.118z" fill="#86bf24"/></g><g><path d="m110.395 296.906-100.732-61.731" fill="none" stroke="#7aad21" stroke-miterlimit="10" stroke-width="9.67"/><path d="m90.55 284.726c15.953-25.989 50.689-32.861 75.317-14.879 74.274 54.231 211.052 158.644 196.666 182.081-13.339 21.731-168.399-51.946-250.799-93.126-27.421-13.705-37.221-47.95-21.184-74.076z" fill="#fa870a"/><path d="m356.14 431.138c-48.246-8.114-162.487-62.708-229.161-96.029-23.393-11.691-33.946-38.326-26.592-62.121-3.739 3.324-7.075 7.236-9.837 11.737-16.037 26.126-6.238 60.371 21.185 74.076 82.399 41.18 237.46 114.857 250.799 93.126 2.69-4.382.092-11.599-6.394-20.789z" fill="#fa690f"/><path d="m147.058 307.071-27.014 44.008" fill="none" stroke="#fa690f" stroke-miterlimit="10" stroke-width="10.572"/><path d="m198.608 294.058c-2.874-2.154-5.713-4.273-8.506-6.351l-14.449 23.539 9.01 5.53z" fill="#fa690f"/><path d="m204.488 324.369-27.013 44.008" fill="none" stroke="#fa690f" stroke-miterlimit="10" stroke-width="10.572"/><path d="m224.318 371.95-15.953 25.989" fill="none" stroke="#fa690f" stroke-miterlimit="10" stroke-width="10.572"/><path d="m280.462 358.123c-2.722-2.253-5.472-4.513-8.245-6.776l-8.548 13.926 9.01 5.53z" fill="#fa690f"/><g fill="none" stroke-miterlimit="10"><path d="m293.209 391.35-21.484 34.998" stroke="#fa690f" stroke-width="10.572"/><path d="m66.094 229.094 11.393 47.611-47.611 11.393" stroke="#7aad21" stroke-width="9.67"/><path d="m26.218 219.287 7.278 30.415-30.415 7.278" stroke="#7aad21" stroke-width="9.67"/><path d="m87.049 219.336-16.36 26.653-26.653-16.361" stroke="#7aad21" stroke-width="9.67"/><path d="m30.87 310.858 16.36-26.653-26.653-16.36" stroke="#7aad21" stroke-width="9.67"/><path d="m93.56 260.624-16.073 16.081-7.12 21.703" stroke="#7aad21" stroke-width="9.67"/></g></g><g><path d="m350.334 375.278h-77.272c-31.998 0-57.938-25.94-57.938-57.938 0-31.998 25.94-57.938 57.938-57.938h77.272c31.998 0 57.938 25.94 57.938 57.938.001 31.998-25.939 57.938-57.938 57.938z" fill="#a56941"/><g fill="#965028"><path d="m350.334 354.449h-77.272c-28.447 0-52.089-20.508-56.99-47.541-.618 3.384-.949 6.869-.949 10.432 0 31.999 25.94 57.938 57.938 57.938h77.272c31.998 0 57.938-25.94 57.938-57.938 0-3.563-.331-7.048-.949-10.432-4.899 27.033-28.541 47.541-56.988 47.541z"/><ellipse cx="262.147" cy="331.928" rx="16.801" ry="9.675"/><ellipse cx="294.906" cy="312.582" rx="9.329" ry="4.408"/><ellipse cx="265.404" cy="299.308" rx="7.745" ry="4.055"/><ellipse cx="364.726" cy="291.271" rx="6.813" ry="3.982"/><ellipse cx="314.764" cy="264.374" rx="6.4" ry="3.892"/><ellipse cx="352.133" cy="334.387" rx="8.258" ry="6.249"/></g></g><g><path d="m185.402 429.574-38.034 24.081c-8.263-3.943-17.701-3.952-25.315.869-12.533 7.935-15.371 25.933-6.339 40.199s26.515 19.398 39.048 11.462c7.614-4.821 11.642-13.356 11.612-22.511l38.034-24.081z" fill="#fff"/><path d="m127.466 487.282c-7.574-11.963-6.773-26.527 1.064-35.604-2.251.615-4.432 1.55-6.478 2.846-12.533 7.935-15.371 25.933-6.338 40.199 9.032 14.266 26.515 19.398 39.048 11.462 2.046-1.295 3.824-2.866 5.343-4.638-11.557 3.203-25.065-2.302-32.639-14.265z" fill="#ffebb4"/><path d="m200.876 454.014 261.412-184.285-21.602-16.321-255.284 176.166z" fill="#3d772a"/><path d="m491.889 276.219-288.094 182.406-14.082-22.241 281.907-178.49z" fill="#5c9c3d"/><path d="m488.959 304.728-284.551 154.865-19.006-30.019 303.395-144.551z" fill="#6eaa50"/></g></g></svg>